<?xml version="1.0" encoding="utf-8"?>
<!-- Generator: Adobe Illustrator 24.0.2, SVG Export Plug-In . SVG Version: 6.00 Build 0)  -->
<svg version="1.1" id="Layer_1" xmlns="http://www.w3.org/2000/svg" xmlns:xlink="http://www.w3.org/1999/xlink" x="0px" y="0px"
	 viewBox="0 0 15713.3 15575" style="enable-background:new 0 0 15713.3 15575;" xml:space="preserve">
<style type="text/css">
	.st0{stroke:#FFFFFF;stroke-width:7;stroke-miterlimit:5.1012;}
	.st1{fill:#FFFFFF;stroke:#FFFFFF;stroke-width:7;stroke-miterlimit:5.1012;}
</style>
<g id="Layer_1_1_">
</g>
<g>
	<circle class="st0" cx="7856.6" cy="7859.3" r="7326.7"/>
	<path class="st1" d="M10128.3,14827c0,0-176.3-13.8-277.5-67.6c-143.2-76.1-151.9-193.1-151.9-193.1l-14.6-2360.9
		c0,0-42.1-336.6-143.3-587.9c-94.6-235.1-316.1-524.7-316.1-524.7s2638.4-91.6,3249.4-2503.4
		c480.5-1896.5-657.5-3034.5-657.5-3034.5s160.2-619.5,94.8-1138.1c-60.6-481.2-246.6-859.6-246.6-859.6s-472-8.4-1021.7,202.3
		c-487.6,186.9-976,556.3-976,556.3S8833,4074,7843.9,4063c-1040.5-11.6-1843.1,252.9-1843.1,252.9s-183.3-256-1149.8-619.5
		c-701.6-263.9-876.7-146.6-876.7-146.6s-198.8,445.8-257.8,985.3c-76.1,695.5,210.7,918.8,210.7,918.8s-1255.9,1222.2-708,3211.5
		C3887.1,11090,6456,11092.8,6456,11092.8s-229.5,265.1-297.1,447.6c-90.1,243.1-132.8,492.3-132.8,492.3s-859.8,476.2-1567.8,29.5
		c-721.8-455.4-538.4-753.5-910.3-1011.5c-390.4-270.8-1007.7-542.6-1141.1-248.7c-85.3,188.1,701.7,515.2,916.7,1024.1
		c423.5,1002.6,888.4,1155.6,1092.6,1243.6c175.7,75.7,536.5,109.6,872.2,92.4c385.5-19.7,699.8-65.3,699.8-65.3v1435
		c0,0-9.5,129.6-135.9,192.8c-175.6,87.8-267.3,102.3-267.3,102.3s947.1,335.4,2271.7,359
		C9104.8,15208.3,10128.3,14827,10128.3,14827z"/>
	<path class="st1" d="M7856.6,15186"/>
	<path class="st1" d="M5665.8,14827"/>
</g>
</svg>
